<svg width="256" height="256" viewBox="0 0 256 256" fill="none" xmlns="http://www.w3.org/2000/svg">
<path d="M216 32V192C216 194.122 215.157 196.157 213.657 197.657C212.157 199.157 210.122 200 208 200H72C67.7565 200 63.6869 201.686 60.6863 204.686C57.6857 207.687 56 211.757 56 216H192C194.122 216 196.157 216.843 197.657 218.343C199.157 219.843 200 221.878 200 224C200 226.122 199.157 228.157 197.657 229.657C196.157 231.157 194.122 232 192 232H48C45.8783 232 43.8434 231.157 42.3431 229.657C40.8429 228.157 40 226.122 40 224V56C40 47.5131 43.3714 39.3737 49.3726 33.3726C55.3737 27.3714 63.5131 24 72 24H208C210.122 24 212.157 24.8429 213.657 26.3431C215.157 27.8434 216 29.8783 216 32Z" fill="#4C53A5"/>
</svg>
