<svg width="256" height="256" viewBox="0 0 256 256" fill="none" xmlns="http://www.w3.org/2000/svg">
<path d="M208 20H72C62.4522 20 53.2955 23.7928 46.5442 30.5442C39.7928 37.2955 36 46.4522 36 56V224C36 227.183 37.2643 230.235 39.5147 232.485C41.7652 234.736 44.8174 236 48 236H192C195.183 236 198.235 234.736 200.485 232.485C202.736 230.235 204 227.183 204 224C204 220.817 202.736 217.765 200.485 215.515C198.235 213.264 195.183 212 192 212H60V208C60 204.817 61.2643 201.765 63.5147 199.515C65.7652 197.264 68.8174 196 72 196H208C211.183 196 214.235 194.736 216.485 192.485C218.736 190.235 220 187.183 220 184V32C220 28.8174 218.736 25.7652 216.485 23.5147C214.235 21.2643 211.183 20 208 20ZM196 172H72C67.9114 171.992 63.852 172.689 60 174.06V56C60 52.8174 61.2643 49.7652 63.5147 47.5147C65.7652 45.2643 68.8174 44 72 44H196V172Z" fill="#6C6C6C"/>
</svg>
