<svg width="24" height="24" viewBox="0 0 24 24" fill="none" xmlns="http://www.w3.org/2000/svg">
<path d="M15 22L14.445 22.832C14.5956 22.9325 14.7707 22.9902 14.9515 22.999C15.1323 23.0078 15.3122 22.9673 15.4718 22.8819C15.6314 22.7965 15.7649 22.6693 15.8579 22.514C15.9509 22.3587 16.0001 22.181 16 22H15ZM12 20L12.555 19.168C12.3907 19.0584 12.1976 18.9999 12 18.9999C11.8025 18.9999 11.6094 19.0584 11.445 19.168L12 20ZM9.00003 22H8.00003C8 22.181 8.04913 22.3587 8.14216 22.514C8.23519 22.6693 8.36864 22.7965 8.52826 22.8819C8.68789 22.9673 8.86772 23.0078 9.04855 22.999C9.22938 22.9902 9.40443 22.9325 9.55503 22.832L9.00003 22ZM15.555 21.168L12.555 19.168L11.445 20.832L14.445 22.832L15.555 21.168ZM11.445 19.168L8.44503 21.168L9.55503 22.832L12.555 20.832L11.445 19.168ZM12.762 3.438L12.804 3.488L14.327 2.192L14.285 2.142L12.762 3.438ZM15.329 4.534L15.394 4.529L15.234 2.535L15.169 2.54L15.329 4.534ZM16.471 5.606L16.466 5.671L18.46 5.831L18.465 5.766L16.471 5.606ZM17.512 8.196L17.562 8.238L18.858 6.715L18.808 6.673L17.512 8.196ZM17.562 9.762L17.512 9.804L18.808 11.327L18.858 11.285L17.562 9.762ZM16.466 12.329L16.471 12.394L18.465 12.234L18.46 12.169L16.466 12.329ZM15.394 13.471L15.329 13.466L15.169 15.46L15.234 15.465L15.394 13.471ZM12.804 14.512L12.762 14.562L14.285 15.858L14.327 15.808L12.804 14.512ZM11.238 14.562L11.196 14.512L9.67303 15.808L9.71503 15.858L11.238 14.562ZM8.67103 13.466L8.60603 13.471L8.76603 15.465L8.83103 15.46L8.67103 13.466ZM7.52903 12.394L7.53403 12.329L5.54003 12.169L5.53503 12.234L7.52903 12.394ZM6.48803 9.804L6.43803 9.762L5.14203 11.285L5.19203 11.327L6.48803 9.804ZM6.43803 8.238L6.48803 8.196L5.19203 6.673L5.14203 6.715L6.43803 8.238ZM7.53403 5.671L7.52903 5.606L5.53503 5.766L5.54003 5.831L7.53403 5.671ZM8.60603 4.529L8.67003 4.534L8.83103 2.54L8.76603 2.535L8.60603 4.529ZM11.196 3.488L11.238 3.438L9.71503 2.142L9.67303 2.192L11.196 3.488ZM8.67003 4.534C9.14367 4.57207 9.62058 4.4971 10.0596 4.31524C10.4986 4.13339 10.8881 3.84986 11.196 3.488L9.67303 2.192C9.57028 2.31255 9.44035 2.40696 9.29396 2.46746C9.14758 2.52796 8.98891 2.55283 8.83103 2.54L8.67003 4.534ZM7.52903 5.606C7.51741 5.46162 7.5373 5.31643 7.58731 5.18049C7.63733 5.04455 7.71628 4.92109 7.8187 4.81867C7.92113 4.71625 8.04458 4.63729 8.18052 4.58728C8.31646 4.53726 8.46165 4.51738 8.60603 4.529L8.76603 2.535C8.33296 2.50029 7.89752 2.56006 7.48982 2.71017C7.08211 2.86029 6.71188 3.09716 6.40472 3.40442C6.09756 3.71168 5.8608 4.08198 5.71081 4.48973C5.56082 4.89748 5.50019 5.33294 5.53503 5.766L7.52903 5.606ZM6.48803 8.196C6.84989 7.88804 7.13342 7.49852 7.31527 7.05953C7.49713 6.62055 7.5721 6.14464 7.53403 5.671L5.54003 5.831C5.55286 5.98888 5.52799 6.14755 5.46749 6.29393C5.40699 6.44032 5.31258 6.57024 5.19203 6.673L6.48803 8.196ZM6.43803 9.762C6.32757 9.66812 6.23883 9.55135 6.17798 9.41978C6.11713 9.2882 6.08561 9.14497 6.08561 9C6.08561 8.85503 6.11713 8.7118 6.17798 8.58022C6.23883 8.44865 6.32757 8.33188 6.43803 8.238L5.14203 6.715C4.81098 6.99663 4.54508 7.34684 4.36273 7.74137C4.18038 8.13591 4.08594 8.56536 4.08594 9C4.08594 9.43464 4.18038 9.86409 4.36273 10.2586C4.54508 10.6532 4.81098 11.0034 5.14203 11.285L6.43803 9.762ZM7.53403 12.329C7.5721 11.8554 7.49713 11.3795 7.31527 10.9405C7.13342 10.5015 6.84989 10.112 6.48803 9.804L5.19203 11.327C5.31258 11.4298 5.40699 11.5597 5.46749 11.7061C5.52799 11.8525 5.55286 12.0111 5.54003 12.169L7.53403 12.329ZM8.60603 13.471C8.46165 13.4826 8.31646 13.4627 8.18052 13.4127C8.04458 13.3627 7.92113 13.2838 7.8187 13.1813C7.71628 13.0789 7.63733 12.9555 7.58731 12.8195C7.5373 12.6836 7.51741 12.5384 7.52903 12.394L5.53503 12.234C5.50032 12.6671 5.56009 13.1025 5.71021 13.5102C5.86032 13.9179 6.09719 14.2881 6.40445 14.5953C6.71171 14.9025 7.08201 15.1392 7.48976 15.2892C7.89751 15.4392 8.33297 15.4988 8.76603 15.464L8.60603 13.471ZM12.762 14.561C12.6682 14.6715 12.5514 14.7602 12.4198 14.8211C12.2882 14.8819 12.145 14.9134 12 14.9134C11.8551 14.9134 11.7118 14.8819 11.5803 14.8211C11.4487 14.7602 11.3319 14.6715 11.238 14.561L9.71503 15.858C9.99666 16.1891 10.3469 16.455 10.7414 16.6373C11.1359 16.8196 11.5654 16.9141 12 16.9141C12.4347 16.9141 12.8641 16.8196 13.2587 16.6373C13.6532 16.455 14.0034 16.1891 14.285 15.858L12.762 14.561ZM16.471 12.394C16.4827 12.5385 16.4638 12.6838 16.4137 12.8198C16.3636 12.9558 16.2846 13.0793 16.182 13.1817C16.0795 13.2842 15.9559 13.3631 15.8199 13.4131C15.6838 13.463 15.5385 13.4828 15.394 13.471L15.234 15.465C15.6671 15.4997 16.1025 15.4399 16.5102 15.2898C16.9179 15.1397 17.2882 14.9028 17.5953 14.5956C17.9025 14.2883 18.1393 13.918 18.2893 13.5103C18.4392 13.1025 18.4999 12.6671 18.465 12.234L16.471 12.394ZM17.512 9.804C17.1502 10.112 16.8666 10.5015 16.6848 10.9405C16.5029 11.3795 16.428 11.8554 16.466 12.329L18.46 12.169C18.4472 12.0111 18.4721 11.8525 18.5326 11.7061C18.5931 11.5597 18.6875 11.4298 18.808 11.327L17.512 9.804ZM17.562 8.238C17.6725 8.33188 17.7612 8.44865 17.8221 8.58022C17.8829 8.7118 17.9145 8.85503 17.9145 9C17.9145 9.14497 17.8829 9.2882 17.8221 9.41978C17.7612 9.55135 17.6725 9.66812 17.562 9.762L18.858 11.285C19.1891 11.0034 19.455 10.6532 19.6373 10.2586C19.8197 9.86409 19.9141 9.43464 19.9141 9C19.9141 8.56536 19.8197 8.13591 19.6373 7.74137C19.455 7.34684 19.1891 6.99663 18.858 6.715L17.562 8.238ZM16.466 5.671C16.428 6.14464 16.5029 6.62055 16.6848 7.05953C16.8666 7.49852 17.1502 7.88804 17.512 8.196L18.808 6.673C18.6875 6.57024 18.5931 6.44032 18.5326 6.29393C18.4721 6.14755 18.4472 5.98888 18.46 5.831L16.466 5.671ZM15.394 4.529C15.5384 4.51738 15.6836 4.53726 15.8195 4.58728C15.9555 4.63729 16.0789 4.71625 16.1814 4.81867C16.2838 4.92109 16.3627 5.04455 16.4128 5.18049C16.4628 5.31643 16.4827 5.46162 16.471 5.606L18.465 5.766C18.4997 5.33293 18.44 4.89749 18.2899 4.48978C18.1397 4.08208 17.9029 3.71185 17.5956 3.40469C17.2884 3.09753 16.918 2.86077 16.5103 2.71078C16.1026 2.56079 15.6671 2.50016 15.234 2.535L15.394 4.529ZM12.804 3.488C13.112 3.84986 13.5015 4.13339 13.9405 4.31524C14.3795 4.4971 14.8554 4.57207 15.329 4.534L15.169 2.54C15.0112 2.55283 14.8525 2.52796 14.7061 2.46746C14.5597 2.40696 14.4298 2.31255 14.327 2.192L12.804 3.488ZM14.285 2.142C14.0034 1.81112 13.6522 1.54537 13.2578 1.36312C12.8634 1.18088 12.434 1.08649 11.9995 1.08649C11.565 1.08649 11.1357 1.18088 10.7413 1.36312C10.3468 1.54537 9.99666 1.81112 9.71503 2.142L11.238 3.438C11.3319 3.32754 11.4487 3.2388 11.5803 3.17795C11.7118 3.1171 11.8551 3.08558 12 3.08558C12.145 3.08558 12.2882 3.1171 12.4198 3.17795C12.5514 3.2388 12.6682 3.32754 12.762 3.438L14.285 2.142ZM11.196 14.512C10.9289 14.1981 10.6 13.9425 10.2297 13.7614C9.85945 13.5802 9.45583 13.4773 9.04403 13.459L8.95603 15.457C9.09324 15.4631 9.22772 15.4975 9.35108 15.5578C9.47443 15.6182 9.58403 15.7034 9.67303 15.808L11.196 14.512ZM9.04403 13.46C8.91967 13.4546 8.7951 13.457 8.67103 13.467L8.83103 15.461C8.87259 15.4574 8.91434 15.4564 8.95603 15.458L9.04403 13.46ZM10 22V14.458H8.00003V22H10ZM15.329 13.466C15.2046 13.4559 15.0807 13.4536 14.956 13.459L15.044 15.457C15.0857 15.4554 15.1275 15.4564 15.169 15.46L15.329 13.466ZM14.956 13.459C14.5442 13.4773 14.1406 13.5802 13.7704 13.7614C13.4001 13.9425 13.0711 14.1981 12.804 14.512L14.327 15.808C14.4161 15.7036 14.5258 15.6186 14.6491 15.5584C14.7725 15.4982 14.9069 15.464 15.044 15.458L14.956 13.459ZM14 14.459V22H16V14.458L14 14.459Z" fill="#4C53A5"/>
<path d="M14 8L11 11L10 10" stroke="#4C53A5" stroke-width="2" stroke-linecap="round" stroke-linejoin="round"/>
</svg>
