<svg width="36" height="36" viewBox="0 0 36 36" fill="none" xmlns="http://www.w3.org/2000/svg">
<g clip-path="url(#clip0_7_6)">
<path d="M18 2C14.8355 2 11.7421 2.93838 9.11088 4.69649C6.4797 6.45459 4.42894 8.95345 3.21793 11.8771C2.00693 14.8007 1.69008 18.0177 2.30744 21.1214C2.92481 24.2251 4.44866 27.0761 6.6863 29.3137C8.92394 31.5513 11.7749 33.0752 14.8786 33.6926C17.9823 34.3099 21.1993 33.9931 24.1229 32.7821C27.0466 31.5711 29.5454 29.5203 31.3035 26.8891C33.0616 24.2579 34 21.1645 34 18C34 13.7565 32.3143 9.68687 29.3137 6.68629C26.3131 3.68571 22.2435 2 18 2ZM25.65 23.59C24.65 26.59 22.04 27.43 19.75 27.59V29.59C19.75 29.9215 19.6183 30.2395 19.3839 30.4739C19.1495 30.7083 18.8315 30.84 18.5 30.84C18.1685 30.84 17.8505 30.7083 17.6161 30.4739C17.3817 30.2395 17.25 29.9215 17.25 29.59V27.59C14.9537 27.3747 12.7756 26.4721 11 25C10.8798 24.8877 10.783 24.7529 10.7149 24.6032C10.6469 24.4534 10.609 24.2918 10.6034 24.1274C10.5979 23.9631 10.6247 23.7992 10.6825 23.6452C10.7402 23.4913 10.8277 23.3502 10.94 23.23C11.0523 23.1098 11.1871 23.013 11.3369 22.9449C11.4866 22.8769 11.6482 22.839 11.8126 22.8334C11.9769 22.8279 12.1408 22.8547 12.2948 22.9125C12.4487 22.9702 12.5898 23.0577 12.71 23.17C14.0187 24.2239 15.5935 24.8953 17.26 25.11V18.83C15.9319 18.6254 14.6613 18.1451 13.53 17.42C12.579 16.8235 11.8671 15.9126 11.5181 14.8457C11.1692 13.7787 11.2052 12.6231 11.62 11.58C12.21 10.07 14.04 8.35 17.26 8.07V6.25C17.26 5.91848 17.3917 5.60054 17.6261 5.36612C17.8605 5.1317 18.1785 5 18.51 5C18.8415 5 19.1595 5.1317 19.3939 5.36612C19.6283 5.60054 19.76 5.91848 19.76 6.25V8.11C21.5475 8.30803 23.2444 9.00064 24.66 10.11C24.8562 10.3408 24.9619 10.6351 24.9574 10.938C24.9529 11.2409 24.8386 11.5319 24.6357 11.7568C24.4327 11.9818 24.155 12.1254 23.8541 12.1609C23.5533 12.1964 23.2498 12.1215 23 11.95C22.0452 11.2517 20.9319 10.8015 19.76 10.64V16.77C20.36 16.9 21 17.04 21.67 17.25C22.445 17.4432 23.1722 17.7931 23.8068 18.2781C24.4415 18.7631 24.97 19.3729 25.36 20.07C25.9169 21.1592 26.0211 22.4243 25.65 23.59Z" fill="#4C53A5"/>
<path d="M20.92 19.64C20.52 19.52 20.13 19.42 19.75 19.34V25.1C21.75 24.9 22.82 24.2 23.28 22.8C23.4333 22.2735 23.3797 21.7083 23.13 21.22C22.886 20.8223 22.5646 20.4775 22.185 20.2061C21.8055 19.9347 21.3753 19.7422 20.92 19.64Z" fill="#4C53A5"/>
<path d="M13.94 12.48C13.7314 12.9984 13.7177 13.5749 13.9016 14.1026C14.0854 14.6303 14.4544 15.0735 14.94 15.35C15.647 15.803 16.4347 16.1153 17.26 16.27V10.55C15.16 10.8 14.19 11.84 13.94 12.48Z" fill="#4C53A5"/>
</g>
<defs>
<clipPath id="clip0_7_6">
<rect width="36" height="36" fill="white"/>
</clipPath>
</defs>
</svg>
