<svg width="289" height="245" viewBox="0 0 289 245" fill="none" xmlns="http://www.w3.org/2000/svg">
<path d="M246.791 149.43H32.3945L69.7422 0H284.159L246.791 149.43Z" fill="#4C53A5"/>
<path d="M242.387 143.342H39.5781L74.1658 6.0874H278.365L242.387 143.342Z" fill="white"/>
<path d="M250.941 149.43H246.791L284.158 0H288.308L250.941 149.43Z" fill="black"/>
<mask id="mask0_189_23034" style="mask-type:luminance" maskUnits="userSpaceOnUse" x="59" y="14" width="90" height="89">
<path d="M122.535 102.999H66.0629C61.6195 102.999 58.3506 98.8302 59.4272 94.5042L78.1011 19.5348C78.8645 16.4813 81.6049 14.3477 84.7367 14.3477H141.208C145.652 14.3477 148.921 18.517 147.844 22.8429L129.17 97.8123C128.407 100.846 125.667 102.999 122.535 102.999Z" fill="white"/>
</mask>
<g mask="url(#mask0_189_23034)">
<path d="M127.878 102.999H57.3125L79.3923 14.3477H149.957L127.878 102.999Z" fill="#EDF5F6"/>
</g>
<mask id="mask1_189_23034" style="mask-type:luminance" maskUnits="userSpaceOnUse" x="59" y="14" width="90" height="89">
<path d="M122.535 102.999H66.0629C61.6195 102.999 58.3506 98.8302 59.4272 94.5042L78.1011 19.5348C78.8645 16.4813 81.6049 14.3477 84.7367 14.3477H141.208C145.652 14.3477 148.921 18.517 147.844 22.8429L129.17 97.8123C128.407 100.846 125.667 102.999 122.535 102.999Z" fill="white"/>
</mask>
<g mask="url(#mask1_189_23034)">
<path d="M135.257 116.995C135.179 117.23 135.081 117.445 134.964 117.661C133.574 119.912 110.633 120.01 108.01 118.13C106.835 117.289 106.483 105.681 106.444 93.1145C106.405 77.5726 106.835 60.543 106.835 60.543C106.835 60.543 115.82 64.7123 116.251 69.8407C116.681 74.9692 112.923 105.779 115.526 107.658C118.149 109.537 130.246 109.792 134.279 110.966C134.298 110.966 136.001 114.646 135.257 116.995Z" fill="#9B98FF"/>
<path d="M106.131 23.119L105.682 23.4745L106.253 23.5148C106.277 23.5165 106.301 23.5182 106.326 23.5199C107.148 23.5778 108.156 23.6487 109.149 23.893C110.171 24.1444 111.159 24.5751 111.902 25.3459C115.905 29.5137 117.244 32.9523 117.001 35.7252C116.759 38.495 114.931 40.6736 112.426 42.307C109.922 43.9397 106.771 45.0063 103.96 45.5553C102.556 45.8296 101.241 45.9737 100.14 45.9957C99.0328 46.0178 98.1641 45.9157 97.6374 45.7137L97.6371 45.7135C94.2164 44.4081 92.2359 41.2871 91.4995 37.6968C90.7628 34.105 91.2812 30.08 92.8233 27.0344L92.4868 26.7603C92.1527 27.0263 91.8439 27.2845 91.5775 27.5136C92.7582 25.5042 94.0288 24.1961 95.2844 23.3715C96.7593 22.4029 98.2257 22.093 99.5274 22.1084C100.832 22.1239 101.974 22.4663 102.792 22.8068C103.2 22.9767 103.526 23.1456 103.749 23.2713C103.861 23.3342 103.947 23.3862 104.004 23.4222C104.032 23.4401 104.054 23.454 104.068 23.4633L104.083 23.4736L104.087 23.4759L104.087 23.4763L104.087 23.4763L104.087 23.4764L104.175 23.5362L104.276 23.5062L104.276 23.5062L104.276 23.5062L104.276 23.5062L104.277 23.5058L104.282 23.5044L104.302 23.4988C104.319 23.4939 104.344 23.4866 104.377 23.4774C104.443 23.459 104.539 23.433 104.657 23.4025C104.894 23.3414 105.219 23.263 105.575 23.1931C105.767 23.1552 105.967 23.1201 106.166 23.0916C106.154 23.1006 106.142 23.1097 106.131 23.119Z" fill="black" stroke="#4C53A5" stroke-width="0.444243"/>
<path d="M107.209 63.1071C107.248 63.1267 102.354 64.9275 99.0266 63.5377C95.8947 62.2263 94.3288 57.7437 94.3679 57.7437C95.7773 57.6459 96.4232 55.8059 97.4411 47.7021L98.0479 47.8979L108.226 51.3234C108.226 51.3234 107.561 54.5727 107.15 57.6654C106.798 60.2688 106.641 62.7548 107.209 63.1071Z" fill="#C8C8C8"/>
<path d="M108.225 51.3234C108.225 51.3234 107.56 54.5728 107.149 57.6655C101.335 56.7455 98.9277 51.0103 98.0469 47.8979L108.225 51.3234Z" fill="#C1C1C1"/>
<path d="M97.108 46.6258C97.108 46.6258 94.6808 41.3995 94.4655 37.1518C94.3285 34.1374 97.245 23.3716 108.05 26.386C108.05 26.386 111.201 27.1102 113.942 29.5375C116.115 31.4557 119.109 35.3902 114.02 44.453L112.591 47.5458L97.108 46.6258Z" fill="black"/>
<path d="M109.791 54.4946C109.791 54.4946 95.9326 52.9287 97.0483 44.316C98.164 35.7033 97.107 29.694 106.013 30.34C114.9 30.9664 116.192 34.4897 116.525 37.4454C116.838 40.4207 113.432 54.6904 109.791 54.4946Z" fill="#C8C8C8"/>
<path d="M110.712 74.0101C110.594 72.9922 112.767 72.5224 113.158 73.462C113.902 75.2237 113.824 77.3181 113.981 79.0015C114.45 83.8363 112.532 90.1197 112.532 90.1197L110.712 74.0101Z" fill="#4C53A5"/>
<path d="M93.3248 40.1472C93.4601 40.0545 93.6382 39.9277 93.8492 39.7668C94.3442 39.3892 95.0209 38.8227 95.7517 38.0646C97.1978 36.5646 98.8608 34.3092 99.7421 31.2784C99.7505 31.2743 99.7595 31.2698 99.7692 31.2651C99.8439 31.2286 99.9543 31.1754 100.096 31.1093C100.379 30.977 100.787 30.7932 101.284 30.5876C102.279 30.176 103.627 29.6788 105.047 29.3325C106.471 28.9854 107.949 28.7945 109.21 28.9811C110.463 29.1666 111.48 29.7203 112.041 30.8499L112.151 31.0729L112.36 30.9377C112.829 30.6345 113.436 30.4139 114.127 30.5828C114.821 30.7524 115.651 31.3268 116.534 32.7291C117.834 34.8008 117.595 37.4234 117.005 39.5642C116.711 40.629 116.335 41.5609 116.033 42.2245C115.882 42.556 115.75 42.8199 115.656 42.9992C115.63 43.0491 115.607 43.0924 115.588 43.1288C115.448 43.0692 115.308 42.8991 115.18 42.5444C115.022 42.1073 114.921 41.4893 114.846 40.7794C114.788 40.2276 114.748 39.6336 114.708 39.0419C114.696 38.8753 114.685 38.709 114.673 38.5438C114.621 37.7969 114.56 37.0728 114.455 36.4871C114.301 35.5925 113.827 34.6578 113.313 33.8517C112.796 33.0416 112.226 32.3427 111.86 31.9178L111.661 31.6866L111.502 31.9469C110.723 33.2226 109.299 35.3656 107.487 37.2602C105.668 39.1613 103.492 40.7778 101.212 41.0617C98.2337 41.4303 96.184 41.1477 94.8866 40.7797C94.2376 40.5957 93.7756 40.3899 93.4787 40.2326C93.4213 40.2021 93.3701 40.1735 93.3248 40.1472ZM115.704 43.3766L115.506 43.2772C115.505 43.2783 115.504 43.2803 115.503 43.2829C115.501 43.288 115.498 43.2952 115.495 43.3012C115.496 43.3123 115.497 43.3232 115.5 43.3339C114.755 43.0174 114.618 40.9975 114.486 39.0545C114.423 38.1303 114.362 37.2234 114.236 36.5256L115.704 43.3766Z" fill="black" stroke="#4C53A5" stroke-width="0.444243"/>
<path d="M107.404 48.8769C107.404 48.8769 107.522 50.0122 110.262 50.1884C110.262 50.1884 112.572 50.345 112.65 49.1313C112.65 49.1313 110.536 47.996 107.404 48.8769Z" fill="white"/>
<path d="M135.259 116.995C135.181 117.23 135.083 117.446 134.966 117.661C133.576 119.912 110.635 120.01 108.012 118.131C106.837 117.289 106.465 102.863 109.695 90.4331C110.459 97.8909 109.049 112.787 112.964 114.001C117.388 115.371 129.465 115.41 135.259 116.995Z" fill="black"/>
<path d="M113.296 90.8245C104.194 117.113 108.344 121.869 105.094 124.14C105.075 124.159 102.373 124.923 102.354 124.942C98.9871 127.174 99.3199 123.983 89.2391 126.88C84.4434 128.27 78.2775 130.11 72.9925 130.991C70.9959 131.324 69.1363 131.519 67.5117 131.5C64.3994 131.461 62.1875 130.639 61.6981 128.466C60.3084 122.163 72.7772 107.541 71.6027 96.3053C71.6027 96.2074 71.5831 96.1096 71.5831 96.0117C71.5244 95.033 71.6223 93.9368 71.8767 92.7428C73.1491 86.7139 78.1405 78.3753 83.0928 71.3481C88.5736 63.5967 93.9957 57.4308 94.3871 57.7244C105.075 66.1022 106.876 60.5235 106.876 60.5235C106.876 60.5235 116.408 81.8595 113.296 90.8245Z" fill="#9B98FF"/>
<path d="M103.313 124.688C103.293 124.688 103.333 124.668 103.313 124.688C99.9462 126.919 99.3003 123.983 89.2391 126.88C84.4434 128.27 78.2775 130.11 72.9925 130.991C70.3304 131.108 68.3534 131.245 67.5117 131.5C64.3994 131.46 62.1875 130.638 61.6981 128.466C60.3084 122.163 72.7772 107.541 71.6027 96.305C71.6027 96.2072 71.5831 96.1093 71.5831 96.0114C71.5048 94.8957 71.6027 93.8191 71.8767 92.7425C73.0316 88.2013 77.0639 83.6209 81.8792 76.8091C84.1106 79.8627 103.842 79.2167 95.7965 105.505C93.291 113.589 102.941 118.13 103.313 124.688Z" fill="#4C53A5"/>
<path d="M94.3687 57.744C94.3687 57.744 78.6115 55.9236 74.8141 63.1465C71.0166 70.3694 68.4328 97.147 71.506 105.701C74.5792 114.255 96.5806 128.133 99.1449 128.896C101.69 129.66 103.843 125.862 103.784 125.412C103.725 124.962 81.8021 101.962 82.1935 99.907C82.5459 97.8517 94.3687 57.744 94.3687 57.744Z" fill="#9B98FF"/>
</g>
<path d="M136.627 41.9669C134.65 41.9669 133.045 40.3618 133.045 38.3848C133.045 36.4078 134.65 34.8027 136.627 34.8027C138.604 34.8027 140.209 36.4078 140.209 38.3848C140.209 40.3618 138.604 41.9669 136.627 41.9669ZM136.627 36.1925C135.413 36.1925 134.435 37.1712 134.435 38.3848C134.435 39.5984 135.413 40.5771 136.627 40.5771C137.841 40.5771 138.819 39.5984 138.819 38.3848C138.819 37.1908 137.841 36.1925 136.627 36.1925Z" fill="#4C53A5"/>
<path d="M138.154 36.1926C137.978 36.1926 137.802 36.1339 137.665 35.9968C137.39 35.7228 137.39 35.2922 137.665 35.0181L148.802 23.8804H236.652C237.043 23.8804 237.337 24.1936 237.337 24.5655C237.337 24.9374 237.023 25.2506 236.652 25.2506H149.39L138.643 35.9968C138.506 36.1339 138.33 36.1926 138.154 36.1926Z" fill="#4C53A5"/>
<path d="M233.128 21.1404H155.497C153.383 21.1404 151.66 19.4179 151.66 17.3038C151.66 15.1898 153.383 13.4673 155.497 13.4673H233.128C235.242 13.4673 236.965 15.1898 236.965 17.3038C236.965 19.4179 235.242 21.1404 233.128 21.1404Z" fill="#4C53A5"/>
<path d="M200.225 112.356C193.824 112.356 188.637 117.544 188.637 123.944C188.637 130.345 193.824 135.532 200.225 135.532C206.625 135.532 211.813 130.345 211.813 123.944C211.813 117.544 206.625 112.356 200.225 112.356Z" fill="#4C53A5"/>
<path d="M239.588 117.465H220.386C219.681 117.465 219.113 118.033 219.113 118.738C219.113 119.442 219.681 120.01 220.386 120.01H239.588C240.293 120.01 240.86 119.442 240.86 118.738C240.86 118.033 240.293 117.465 239.588 117.465Z" fill="#4C53A5"/>
<path d="M239.588 122.672H220.386C219.681 122.672 219.113 123.24 219.113 123.945C219.113 124.649 219.681 125.217 220.386 125.217H239.588C240.293 125.217 240.86 124.649 240.86 123.945C240.86 123.24 240.293 122.672 239.588 122.672Z" fill="#4C53A5"/>
<path d="M239.588 127.879H220.386C219.681 127.879 219.113 128.447 219.113 129.151C219.113 129.856 219.681 130.424 220.386 130.424H239.588C240.293 130.424 240.86 129.856 240.86 129.151C240.86 128.447 240.293 127.879 239.588 127.879Z" fill="#4C53A5"/>
<path d="M189.615 123.768H200.224V113.159C194.372 113.159 189.615 117.916 189.615 123.768Z" fill="#43A5B2"/>
<path d="M210.834 124.121H200.224H189.615C189.615 129.973 194.372 134.73 200.224 134.73C206.077 134.73 210.834 129.973 210.834 124.121Z" fill="#4C53A5"/>
<path d="M198.385 118.327H192.63C192.297 118.327 192.043 118.601 192.043 118.914C192.043 119.247 192.317 119.501 192.63 119.501H198.385C198.718 119.501 198.972 119.227 198.972 118.914C198.992 118.581 198.718 118.327 198.385 118.327Z" fill="#4C53A5"/>
<path d="M193.942 120.48H192.63C192.297 120.48 192.043 120.754 192.043 121.067C192.043 121.4 192.317 121.654 192.63 121.654H193.942C194.274 121.654 194.529 121.38 194.529 121.067C194.548 120.754 194.274 120.48 193.942 120.48Z" fill="#4C53A5"/>
<path d="M206.938 126.705H201.183C200.85 126.705 200.596 126.979 200.596 127.292C200.596 127.625 200.87 127.879 201.183 127.879H206.938C207.271 127.879 207.525 127.605 207.525 127.292C207.545 126.979 207.271 126.705 206.938 126.705Z" fill="black"/>
<path d="M202.494 128.877H201.183C200.85 128.877 200.596 129.151 200.596 129.465C200.596 129.797 200.87 130.052 201.183 130.052H202.494C202.827 130.052 203.082 129.778 203.082 129.465C203.082 129.151 202.827 128.877 202.494 128.877Z" fill="black"/>
<path d="M134.377 135.532C140.777 135.532 145.965 130.344 145.965 123.944C145.965 117.545 140.777 112.356 134.377 112.356C127.977 112.356 122.789 117.545 122.789 123.944C122.789 130.344 127.977 135.532 134.377 135.532Z" fill="#4C53A5"/>
<path d="M154.538 119.99H173.74C174.445 119.99 175.013 119.423 175.013 118.718C175.013 118.013 174.445 117.446 173.74 117.446H154.538C153.833 117.446 153.266 118.013 153.266 118.718C153.266 119.423 153.833 119.99 154.538 119.99Z" fill="#4C53A5"/>
<path d="M173.74 122.672H154.538C153.833 122.672 153.266 123.24 153.266 123.944C153.266 124.649 153.833 125.217 154.538 125.217H173.74C174.445 125.217 175.013 124.649 175.013 123.944C175.013 123.24 174.425 122.672 173.74 122.672Z" fill="#4C53A5"/>
<path d="M173.74 127.879H154.538C153.833 127.879 153.266 128.447 153.266 129.151C153.266 129.856 153.833 130.424 154.538 130.424H173.74C174.445 130.424 175.013 129.856 175.013 129.151C174.993 128.447 174.425 127.879 173.74 127.879Z" fill="#4C53A5"/>
<path d="M134.377 124.12L123.768 123.983C123.768 124.023 123.768 124.081 123.768 124.12C123.768 129.973 128.524 134.73 134.377 134.73C136.471 134.73 138.429 134.123 140.073 133.066L134.377 124.12Z" fill="#4C53A5"/>
<path d="M134.768 127.468H128.993C128.661 127.468 128.406 127.742 128.406 128.055C128.406 128.388 128.68 128.642 128.993 128.642H134.748C135.081 128.642 135.336 128.368 135.336 128.055C135.355 127.742 135.081 127.468 134.768 127.468Z" fill="black"/>
<path d="M130.305 129.641H128.993C128.661 129.641 128.406 129.915 128.406 130.228C128.406 130.561 128.68 130.815 128.993 130.815H130.305C130.638 130.815 130.892 130.541 130.892 130.228C130.912 129.915 130.638 129.641 130.305 129.641Z" fill="black"/>
<path d="M67.9434 135.532C74.3433 135.532 79.5314 130.344 79.5314 123.944C79.5314 117.545 74.3433 112.356 67.9434 112.356C61.5436 112.356 56.3555 117.545 56.3555 123.944C56.3555 130.344 61.5436 135.532 67.9434 135.532Z" fill="#4C53A5"/>
<path d="M67.9432 113.335C62.0905 113.335 57.334 118.092 57.334 123.944C57.334 127.957 59.5655 131.461 62.8539 133.262C64.5569 130.11 67.9432 123.944 67.9432 123.944L72.9738 133.301C76.3014 131.5 78.5525 127.996 78.5525 123.944C78.5525 118.072 73.7959 113.335 67.9432 113.335Z" fill="#43A5B2"/>
<path d="M107.307 117.465H88.1044C87.3997 117.465 86.832 118.033 86.832 118.738C86.832 119.442 87.3997 120.01 88.1044 120.01H107.307C108.011 120.01 108.579 119.442 108.579 118.738C108.579 118.033 108.011 117.465 107.307 117.465Z" fill="#4C53A5"/>
<path d="M107.307 122.672H88.1044C87.3997 122.672 86.832 123.24 86.832 123.945C86.832 124.649 87.3997 125.217 88.1044 125.217H107.307C108.011 125.217 108.579 124.649 108.579 123.945C108.579 123.24 108.011 122.672 107.307 122.672Z" fill="#4C53A5"/>
<path d="M107.307 127.879H88.1044C87.3997 127.879 86.832 128.447 86.832 129.151C86.832 129.856 87.3997 130.424 88.1044 130.424H107.307C108.011 130.424 108.579 129.856 108.579 129.151C108.579 128.447 108.011 127.879 107.307 127.879Z" fill="#4C53A5"/>
<path d="M68.3342 118.875H62.5794C62.2467 118.875 61.9922 119.149 61.9922 119.462C61.9922 119.795 62.2662 120.049 62.5794 120.049H68.3342C68.667 120.049 68.9215 119.775 68.9215 119.462C68.9215 119.149 68.667 118.875 68.3342 118.875Z" fill="#4C53A5"/>
<path d="M63.8909 121.047H62.5794C62.2467 121.047 61.9922 121.321 61.9922 121.635C61.9922 121.967 62.2662 122.222 62.5794 122.222H63.8909C64.2236 122.222 64.4781 121.948 64.4781 121.635C64.4781 121.302 64.2041 121.047 63.8909 121.047Z" fill="#4C53A5"/>
<path d="M144.614 103H241.35C243.327 103 245.069 101.649 245.539 99.7111L260.924 36.9561C261.589 34.2353 259.534 31.6123 256.735 31.6123H160.312C158.335 31.6123 156.613 32.9629 156.123 34.8812L140.425 97.6363C139.759 100.357 141.815 103 144.614 103Z" fill="#4C53A5"/>
<path d="M248.965 67.9813C248.965 67.9813 231.504 65.7303 217.998 75.8893C204.472 86.0484 186.268 76.7897 178.223 75.8893C164.267 74.3234 151.837 79.0212 147.198 84.2084L143.322 99.7503H241.174L248.965 67.9813Z" fill="black"/>
<path d="M234.439 67.2377H235.203L241.153 43.0635H240.39L234.439 67.2377Z" fill="#4C53A5"/>
<path d="M202.26 77.6313H203.004L209.013 53.4375H208.249L202.26 77.6313Z" fill="#4C53A5"/>
<path d="M173.055 72.1508H173.799L179.827 47.957H179.084L173.055 72.1508Z" fill="#4C53A5"/>
<path d="M231.074 46.7625H236.848C237.2 46.7625 237.553 46.4885 237.631 46.1361C237.709 45.7838 237.494 45.5098 237.161 45.5098H231.387C231.034 45.5098 230.682 45.7838 230.604 46.1361C230.506 46.4885 230.721 46.7625 231.074 46.7625Z" fill="#4C53A5"/>
<path d="M230.505 49.0335H236.28C236.632 49.0335 236.985 48.7595 237.063 48.4071C237.141 48.0548 236.926 47.7808 236.593 47.7808H230.819C230.466 47.7808 230.114 48.0548 230.036 48.4071C229.957 48.7399 230.173 49.0335 230.505 49.0335Z" fill="#4C53A5"/>
<path d="M198.874 59.0945H204.649C205.001 59.0945 205.353 58.8205 205.432 58.4682C205.51 58.1158 205.314 57.8418 204.962 57.8418H199.187C198.835 57.8418 198.483 58.1158 198.405 58.4682C198.307 58.8009 198.522 59.0945 198.874 59.0945Z" fill="#4C53A5"/>
<path d="M198.325 61.3065H204.1C204.452 61.3065 204.805 61.0324 204.883 60.6801C204.961 60.3278 204.765 60.0537 204.413 60.0537H198.639C198.286 60.0537 197.934 60.3278 197.856 60.6801C197.758 61.0324 197.973 61.3065 198.325 61.3065Z" fill="#4C53A5"/>
<path d="M170.099 49.973H175.873C176.226 49.973 176.578 49.6989 176.656 49.3466C176.735 48.9943 176.539 48.7202 176.187 48.7202H170.412C170.06 48.7202 169.707 48.9943 169.629 49.3466C169.531 49.6794 169.747 49.973 170.099 49.973Z" fill="#4C53A5"/>
<path d="M169.531 52.1849H175.305C175.658 52.1849 176.01 51.9108 176.088 51.5585C176.166 51.2062 175.971 50.9321 175.618 50.9321H169.844C169.492 50.9321 169.139 51.2062 169.061 51.5585C168.983 51.9108 169.198 52.1849 169.531 52.1849Z" fill="#4C53A5"/>
<path d="M28.2051 219.447L31.474 233.228L36.3675 233.188L36.5633 219.447H28.2051Z" fill="#D9D9D9"/>
<path d="M69.4297 220.034L78.7275 233.227L82.3487 228.569L76.7505 218.214L69.4297 220.034Z" fill="#D9D9D9"/>
<path d="M45.2149 38.3852C43.5315 37.426 41.4958 37.3281 40.0864 37.4064C40.4584 37.0345 41.163 36.8975 41.163 36.8975C40.2822 36.7605 38.3248 37.6413 38.3248 37.6413C26.0909 32.9239 24.1726 50.9323 24.427 55.1211C24.6815 59.31 20.3164 60.6802 13.9548 63.9687C1.81877 70.252 0.742188 78.6886 0.742188 78.6886C0.840059 78.7473 0.93793 78.806 1.0358 78.8843C1.6426 77.8664 2.87578 75.9482 3.93279 75.6545C3.89364 75.7524 2.69961 78.2971 2.24941 79.7456C5.83149 82.4664 12.5259 88.5148 17.2041 92.782C17.1846 91.9403 17.2237 90.7659 17.5173 90.1395L18.085 93.6041C20.5905 95.8943 22.313 97.519 22.313 97.519C21.9998 94.1326 37.6005 76.3005 45.7434 70.9567C47.7204 68.0402 48.4251 62.8921 48.4838 62.4811C48.151 66.5721 47.4464 68.8623 46.82 70.1542C53.7101 63.7925 49.6974 40.9494 45.2149 38.3852Z" fill="black"/>
<path d="M45.274 71.211C45.3131 71.2306 41.3395 73.2859 38.3642 72.4833C35.5455 71.72 33.7251 68.0791 33.7643 68.0596C34.9583 67.8247 35.2911 66.1804 35.2715 59.1729L35.8 59.2707L44.8433 61.052C44.8433 61.052 44.628 63.8903 44.628 66.5719C44.628 68.8425 44.7455 70.9761 45.274 71.211Z" fill="#D9D9D9"/>
<path d="M35.0352 41.3406C35.0352 41.3406 39.4981 36.5841 45.0963 41.1058C45.0963 41.1058 41.847 40.5381 35.0352 41.3406Z" fill="black"/>
<path d="M44.8441 61.0718C44.8441 61.0718 44.6288 63.9101 44.6288 66.5918C39.559 66.4548 36.8969 61.8352 35.8008 59.271L44.8441 61.0718Z" fill="#C1C1C1"/>
<path d="M34.8613 58.2924C34.8613 58.2924 32.2188 54.1035 31.5728 50.5214C31.1226 47.9572 32.4145 38.4833 41.9472 39.8535C41.9472 39.8535 44.7071 40.1275 47.3105 41.8892C49.3854 43.279 52.3607 46.2934 49.0331 54.5733L48.1718 57.3724L34.8613 58.2924Z" fill="black"/>
<path d="M80.8784 224.948L76.0827 225.085L70.8955 225.241C70.8955 225.241 58.9161 211.892 52.1825 190.517C52.0259 190.027 51.8693 189.518 51.6932 189.009C48.0132 178.283 40.3793 164.816 36.3665 152.621C35.7206 150.683 35.1529 148.843 34.644 147.12C34.4874 146.572 34.3112 146.024 34.1742 145.496C31.2185 135.2 30.3572 128.447 29.5547 121.224L58.5833 121.459C58.5637 121.459 63.2616 170.766 80.8784 224.948Z" fill="#4C53A5"/>
<path d="M54.5119 104.781C54.4336 118.6 56.528 124.512 56.528 124.512C56.528 124.512 44.0984 130.834 29.3394 126.176C29.1632 126.117 17.1055 123.376 17.1055 123.376C17.3599 122.809 19.5523 113.511 19.7871 113.002C22.8994 106.308 25.2679 103.372 25.6398 101.316C26.3249 97.4797 26.3445 93.5061 25.9922 89.7478C25.0918 79.8237 22.4101 71.5829 22.4101 71.5829C26.4424 70.6629 30.2985 69.097 34.4874 67.531C35.4465 68.7251 38.2848 69.9387 40.849 69.88C43.7852 69.8212 44.7052 68.5685 44.6073 67.1787C47.7392 68.9208 50.2251 70.5846 50.2251 70.5846C52.8872 75.2042 58.2897 79.7062 58.6812 86.8117C58.8182 88.5342 54.5119 104.409 54.5119 104.781Z" fill="#4C53A5"/>
<path d="M29.5546 106.328C28.2823 108.128 25.8551 119.031 19.8066 120.402C22.9189 112.631 25.2874 109.205 25.6593 106.817C26.3444 102.354 26.364 97.7345 26.0117 93.3695C28.0278 89.8265 29.5546 87.3798 29.5546 87.3798C29.7112 86.8121 32.7648 77.3382 33.7631 85.7942C34.7222 94.2895 30.964 104.311 29.5546 106.328Z" fill="#4C53A5"/>
<path d="M46.5256 63.5969C46.5256 63.5969 34.5461 63.7926 34.5461 56.3348C34.5461 48.877 32.9802 43.8856 40.6337 43.4354C48.2677 42.9852 49.7749 45.843 50.3817 48.3289C50.9689 50.8344 49.6379 63.362 46.5256 63.5969Z" fill="#D9D9D9"/>
<path d="M49.8401 44.34L49.8406 44.3406C51.1686 45.9398 51.2571 48.183 50.9857 50.0737C50.8508 51.0131 50.6289 51.8513 50.4383 52.4559C50.343 52.758 50.2558 53.0008 50.1917 53.1677C50.175 53.2112 50.1599 53.2494 50.1467 53.2819C50.0391 53.2427 49.914 53.1226 49.7746 52.8522C49.5934 52.5005 49.4393 51.9874 49.2979 51.39C49.1853 50.9144 49.0836 50.3988 48.9826 49.8861C48.9574 49.7581 48.9322 49.6303 48.9068 49.5033C48.781 48.8725 48.6518 48.2611 48.5012 47.7739L48.5008 47.7728C48.2628 47.0173 47.7518 46.2666 47.2238 45.6345C46.6932 44.9992 46.1315 44.4676 45.7744 44.1502L45.5468 43.9478L45.4237 44.2264C44.9081 45.3937 43.937 47.3741 42.6071 49.186C41.2719 51.0051 39.6029 52.616 37.7028 53.1052C35.2135 53.7445 33.4428 53.7271 32.3029 53.5558C31.7327 53.4701 31.3191 53.3456 31.0511 53.2446C31.0172 53.2318 30.9856 53.2194 30.9563 53.2075C31.0564 53.1167 31.1817 52.9991 31.3263 52.8555C31.7069 52.4774 32.2216 51.9179 32.7615 51.1893C33.8279 49.7503 34.9966 47.6463 35.418 44.9749C35.4214 44.9727 35.4249 44.9704 35.4284 44.968C35.4879 44.9286 35.576 44.8711 35.6892 44.7991C35.9156 44.6551 36.2425 44.4533 36.6429 44.2231C37.4446 43.7621 38.5374 43.1893 39.7074 42.7372C40.8807 42.2839 42.1144 41.9589 43.203 41.9783C44.2845 41.9976 45.2005 42.3545 45.7944 43.2454L45.9349 43.4561L46.1255 43.2893C46.4877 42.9724 46.9761 42.7208 47.5744 42.7875C48.1756 42.8545 48.9402 43.2487 49.8401 44.34Z" fill="black" stroke="#4C53A5" stroke-width="0.444243"/>
<path d="M31.3159 232.444C31.3159 232.444 31.7074 235.165 30.6895 238.101C30.6895 238.101 29.887 241.762 33.4887 241.82C37.0903 241.879 37.9712 241.546 37.5601 239.315C37.1491 237.083 36.3857 233.208 36.3857 233.208L31.3159 232.444Z" fill="#D9D9D9"/>
<path d="M37.8927 243.621H30.4349H30.4153C30.0042 241.703 30.6698 238.101 30.6698 238.101C34.7412 241.997 37.2859 238.003 37.2859 238.003C37.971 239.667 37.8927 243.621 37.8927 243.621Z" fill="#BEBEBE"/>
<path d="M91.0182 239.844C91.0182 239.844 84.3825 232.308 82.3468 228.569L77.4141 231.094L88.4344 241.449L91.0182 241.116V239.844Z" fill="#D9D9D9"/>
<path d="M95.0913 243.602H85.8914C85.0889 242.878 84.3059 241.409 83.3663 239.472C82.8183 238.375 81.6047 237.749 80.3715 237.416V243.602H78.4728L76.7111 237.025C75.5366 234.833 76.4175 232.797 77.2396 231.055C78.1987 231.055 80.9978 231.74 85.8914 237.377C87.4965 239.237 89.2778 239.883 91.0394 239.824C91.059 239.844 91.0786 239.844 91.1177 239.863C93.8973 241.155 94.7977 242.741 95.0913 243.602Z" fill="#BEBEBE"/>
<path d="M94.6393 75.9872C94.6393 75.9872 86.79 80.3718 83.9713 81.6441C82.973 82.0943 81.1722 82.936 79.3126 83.7973C78.1969 84.3258 77.0616 84.8543 76.0829 85.3045C74.4386 86.0875 72.4616 85.6569 71.2872 84.2671C67.0396 79.2952 56.0193 68.5294 44.6466 67.1788L44.6075 67.1592C44.6075 67.1592 44.6075 67.1592 44.6075 67.1788C44.6075 67.1788 44.6075 67.1788 44.5879 67.1788L44.6466 67.2962C45.2926 68.8817 51.5172 84.4628 51.7129 87.7513C51.9087 91.2159 52.535 144.38 52.535 144.38C52.535 144.38 52.124 146.826 56.8218 145.809C61.5 144.791 62.7332 143.773 62.7332 143.773C62.7332 143.773 58.2507 110.986 59.4643 99.5742C59.6992 97.3427 59.4839 94.8176 58.9945 92.2142C65.9238 96.4031 74.0863 98.2823 74.0863 98.2823C74.0863 98.2823 77.1399 96.9512 81.8573 94.0151C83.8343 92.7819 86.144 90.8245 88.4147 88.73C91.1551 86.2245 95.8724 80.1565 95.8724 80.1565L94.6393 75.9872Z" fill="#4C53A5"/>
<path d="M76.0843 225.084L70.8971 225.241C70.8971 225.241 58.9176 211.891 52.1841 190.516C52.0275 190.027 51.8709 189.518 51.6947 189.009C48.0148 178.282 40.3808 164.815 36.3681 152.62C35.7221 150.683 35.1545 148.843 34.6456 147.12C34.489 146.572 34.3128 146.024 34.1758 145.495L38.443 142.246C38.443 142.246 51.2837 163.034 55.2377 182.569C58.6828 199.579 72.5022 220.015 76.0843 225.084Z" fill="black"/>
<path d="M38.8731 184.409C38.9514 193.922 38.462 215.787 37.2288 224.83H32.6289C30.0842 224.83 28.8119 224.791 28.8119 224.791C25.6996 209.053 23.4877 196.036 21.8826 184.82C20.5711 175.62 19.3967 167.712 18.4963 160.92C17.5959 154.088 16.9499 148.353 16.7346 143.518C16.6954 142.755 16.6759 142.011 16.6563 141.287C16.6367 140.563 16.6367 139.858 16.6367 139.173L41.7113 136.726C41.4177 153.403 38.8339 178.889 38.8731 184.409Z" fill="#4C53A5"/>
<path d="M32.6287 224.83C30.084 224.83 28.8117 224.791 28.8117 224.791C25.6994 209.053 23.4875 196.036 21.8824 184.82C20.5709 175.62 19.3965 167.712 18.4961 160.92C17.5956 154.089 16.9497 148.353 16.7344 143.519L25.9343 148.941C25.9343 148.941 20.062 151.015 22.2935 166.694C24.5445 182.373 29.5164 222.618 32.6287 224.83Z" fill="black"/>
<path d="M33.8233 143.362C33.8233 143.362 32.0616 149.743 25.9544 148.921C19.8473 148.099 11.1367 144.458 11.1367 144.458C11.1367 144.458 13.7401 136.198 16.9894 125.373C20.9238 112.239 25.7783 95.3267 28.088 84.6587C28.734 81.6639 29.1646 79.1779 29.3408 77.3771L34.5084 67.5312C34.5084 67.5312 41.9662 84.5021 42.3772 88.7889C42.7883 93.0561 33.8233 143.362 33.8233 143.362Z" fill="#4C53A5"/>
<path d="M49.1881 122.555L34.664 120.46C32.5892 120.167 31.1407 118.229 31.4343 116.154L35.7211 86.5185C36.0147 84.4437 37.9525 82.9952 40.0274 83.2888L54.5515 85.3832C56.6264 85.6768 58.0749 87.6147 57.7812 89.6896L53.4945 119.305C53.2009 121.419 51.2826 122.848 49.1881 122.555Z" fill="#E4F4F6"/>
<path d="M50.5394 107.404C52.1837 106.19 53.9453 105.975 55.4134 106.151L56.1377 101.121L52.2815 103.607L32.6681 107.776L31.709 114.431C36.4068 113.061 47.4467 109.694 50.5394 107.404Z" fill="#4C53A5"/>
<path d="M56.7832 97.5384C55.0998 96.6185 53.4947 97.0882 51.8505 98.615C51.0088 99.398 50.539 100.064 49.9518 100.67C47.0156 100.827 40.0472 101.199 34.1749 101.571L33.6855 109.263C38.5008 108.657 44.4122 107.443 51.2241 105.114C51.7526 105.016 52.379 104.663 53.2207 104.037C55.3347 102.432 57.1355 102.706 57.6053 102.041C58.2317 101.14 59.1321 98.8108 56.7832 97.5384Z" fill="#D9D9D9"/>
<path d="M33.5481 97.7343C33.2741 104.664 31.6494 118.111 17.1057 125.295C17.0666 125.314 17.0274 125.334 16.9883 125.354C20.9227 112.219 25.7771 95.3071 28.0869 84.6392C30.7686 88.6323 33.7047 93.9174 33.5481 97.7343Z" fill="#4C53A5"/>
<path d="M34.5071 67.5117C34.5071 67.5117 22.0775 68.3926 19.0826 75.0478C16.0878 81.7031 15.1482 103.842 18.9456 110.36C18.9456 110.36 24.1719 111.847 33.4305 110.125C33.548 110.105 33.6654 110.086 33.7633 110.066C33.7633 110.066 36.719 102.843 34.0765 101.414C34.0765 101.414 26.2664 101.825 27.0885 99.2416C27.9302 96.6578 34.5071 67.5117 34.5071 67.5117Z" fill="#4C53A5"/>
<path d="M103.075 70.7612C96.3806 69.8999 94.6973 75.9875 94.6973 75.9875L95.95 80.1568C98.0053 80.4505 99.8062 79.9024 101.47 77.5339C103.134 75.1654 103.584 76.0658 104.641 74.3041C106.089 71.8965 103.838 70.9961 103.075 70.7612Z" fill="#D9D9D9"/>
<path d="M83.9907 81.6443C82.9924 82.0945 81.1916 82.9362 79.332 83.7974C80.3303 85.5591 81.5635 88.7497 81.8963 94.0152C83.8733 92.782 86.4571 90.7267 88.6494 88.5736C92.1727 85.1089 95.9114 80.1566 95.9114 80.1566L94.6587 75.9873C94.6391 75.9873 86.7898 80.3719 83.9907 81.6443Z" fill="#D9D9D9"/>
<path d="M287.918 244.6H0.391485C0.176168 244.6 0 244.424 0 244.208C0 243.993 0.176168 243.817 0.391485 243.817H287.898C288.114 243.817 288.29 243.993 288.29 244.208C288.309 244.424 288.133 244.6 287.918 244.6Z" fill="#4C53A5"/>
</svg>
