<svg width="24" height="24" viewBox="0 0 24 24" fill="none" xmlns="http://www.w3.org/2000/svg">
<path d="M3.5481 20.938H20.4481C20.5807 20.938 20.7079 20.8853 20.8016 20.7916C20.8954 20.6978 20.9481 20.5706 20.9481 20.438C20.9481 20.3054 20.8954 20.1782 20.8016 20.0844C20.7079 19.9907 20.5807 19.938 20.4481 19.938H3.5481C3.41549 19.938 3.28831 19.9907 3.19454 20.0844C3.10077 20.1782 3.0481 20.3054 3.0481 20.438C3.0481 20.5706 3.10077 20.6978 3.19454 20.7916C3.28831 20.8853 3.41549 20.938 3.5481 20.938ZM9.7101 17.18C10.1323 17.0613 10.5176 16.8377 10.8301 16.53L20.3701 6.99C20.6968 6.66201 20.8802 6.21794 20.8802 5.755C20.8802 5.29206 20.6968 4.84799 20.3701 4.52L19.4301 3.59C19.0972 3.27271 18.655 3.09571 18.1951 3.09571C17.7352 3.09571 17.293 3.27271 16.9601 3.59L7.4201 13.12C7.11246 13.4309 6.89178 13.8171 6.7801 14.24L6.0401 17C6.0053 17.1261 6.00456 17.2592 6.03793 17.3856C6.07131 17.5121 6.13762 17.6275 6.2301 17.72C6.37182 17.8589 6.56168 17.9377 6.7601 17.94L9.7101 17.18ZM10.1201 15.82C9.93568 16.0076 9.7043 16.1423 9.4501 16.21L8.48009 16.47L7.4801 15.47L7.7401 14.5C7.80914 14.2464 7.94363 14.0153 8.1301 13.83L8.5101 13.46L10.5001 15.45L10.1201 15.82ZM11.2101 14.74L9.2201 12.75L15.9501 6.02L17.9401 8.01L11.2101 14.74ZM19.6601 6.29L18.6501 7.3L16.6601 5.31L17.6701 4.29C17.8107 4.14955 18.0013 4.07066 18.2001 4.07066C18.3988 4.07066 18.5895 4.14955 18.7301 4.29L19.6601 5.23C19.7996 5.37114 19.8778 5.56157 19.8778 5.76C19.8778 5.95843 19.7996 6.14886 19.6601 6.29Z" fill="#9B98FF"/>
</svg>
