<svg width="25" height="25" viewBox="0 0 25 25" fill="none" xmlns="http://www.w3.org/2000/svg">
<rect width="24" height="24" transform="translate(0.5 0.5)" fill="white"/>
<path fill-rule="evenodd" clip-rule="evenodd" d="M23.54 12.7615C23.54 11.946 23.4668 11.1619 23.3309 10.4092H12.5V14.8576H18.6891C18.4225 16.2951 17.6123 17.513 16.3943 18.3285V21.214H20.1109C22.2855 19.2119 23.54 16.2637 23.54 12.7615Z" fill="#4285F4"/>
<path fill-rule="evenodd" clip-rule="evenodd" d="M12.4995 23.9998C15.6045 23.9998 18.2077 22.97 20.1104 21.2137L16.3938 18.3282C15.364 19.0182 14.0467 19.4259 12.4995 19.4259C9.50425 19.4259 6.96902 17.403 6.0647 14.6848H2.22266V17.6644C4.11493 21.4228 8.00402 23.9998 12.4995 23.9998Z" fill="#34A853"/>
<path fill-rule="evenodd" clip-rule="evenodd" d="M6.06523 14.685C5.83523 13.995 5.70455 13.2579 5.70455 12.5C5.70455 11.742 5.83523 11.005 6.06523 10.315V7.33545H2.22318C1.44432 8.88795 1 10.6443 1 12.5C1 14.3557 1.44432 16.112 2.22318 17.6645L6.06523 14.685Z" fill="#FBBC05"/>
<path fill-rule="evenodd" clip-rule="evenodd" d="M12.4995 5.57386C14.1879 5.57386 15.7038 6.15409 16.8956 7.29364L20.194 3.99523C18.2024 2.13955 15.5992 1 12.4995 1C8.00402 1 4.11493 3.57705 2.22266 7.33545L6.0647 10.315C6.96902 7.59682 9.50425 5.57386 12.4995 5.57386Z" fill="#EA4335"/>
</svg>
