<svg width="547" height="547" viewBox="0 0 547 547" fill="none" xmlns="http://www.w3.org/2000/svg">
<g filter="url(#filter0_d_420_68)">
<circle cx="273.5" cy="269.5" r="269.5" fill="#0566FE"/>
<circle cx="273.5" cy="269.5" r="268.5" stroke="#2261D3" stroke-width="2"/>
</g>
<g filter="url(#filter1_d_420_68)">
<path d="M422.75 255.625C422.75 248.398 419.879 241.467 414.769 236.356C409.658 231.246 402.727 228.375 395.5 228.375H309.39L322.47 166.109C322.743 164.746 322.879 163.247 322.879 161.749C322.879 156.162 320.562 150.985 316.884 147.306L302.441 133L212.789 222.652C207.748 227.694 204.75 234.506 204.75 242V378.25C204.75 385.477 207.621 392.408 212.731 397.519C217.842 402.629 224.773 405.5 232 405.5H354.625C365.934 405.5 375.608 398.688 379.695 388.878L420.843 292.821C422.069 289.687 422.75 286.417 422.75 282.875V255.625ZM123 405.5H177.5V242H123V405.5Z" fill="#F8F8F8"/>
</g>
<defs>
<filter id="filter0_d_420_68" x="0" y="0" width="547" height="547" filterUnits="userSpaceOnUse" color-interpolation-filters="sRGB">
<feFlood flood-opacity="0" result="BackgroundImageFix"/>
<feColorMatrix in="SourceAlpha" type="matrix" values="0 0 0 0 0 0 0 0 0 0 0 0 0 0 0 0 0 0 127 0" result="hardAlpha"/>
<feOffset dy="4"/>
<feGaussianBlur stdDeviation="2"/>
<feComposite in2="hardAlpha" operator="out"/>
<feColorMatrix type="matrix" values="0 0 0 0 0 0 0 0 0 0 0 0 0 0 0 0 0 0 0.25 0"/>
<feBlend mode="normal" in2="BackgroundImageFix" result="effect1_dropShadow_420_68"/>
<feBlend mode="normal" in="SourceGraphic" in2="effect1_dropShadow_420_68" result="shape"/>
</filter>
<filter id="filter1_d_420_68" x="119" y="129" width="307.75" height="280.5" filterUnits="userSpaceOnUse" color-interpolation-filters="sRGB">
<feFlood flood-opacity="0" result="BackgroundImageFix"/>
<feColorMatrix in="SourceAlpha" type="matrix" values="0 0 0 0 0 0 0 0 0 0 0 0 0 0 0 0 0 0 127 0" result="hardAlpha"/>
<feOffset/>
<feGaussianBlur stdDeviation="2"/>
<feComposite in2="hardAlpha" operator="out"/>
<feColorMatrix type="matrix" values="0 0 0 0 0 0 0 0 0 0 0 0 0 0 0 0 0 0 0.25 0"/>
<feBlend mode="normal" in2="BackgroundImageFix" result="effect1_dropShadow_420_68"/>
<feBlend mode="normal" in="SourceGraphic" in2="effect1_dropShadow_420_68" result="shape"/>
</filter>
</defs>
</svg>
