<svg width="285" height="196" viewBox="0 0 285 196" fill="none" xmlns="http://www.w3.org/2000/svg">
<g filter="url(#filter0_d_61_31)">
<path d="M221.04 61.3989V31.0178L216.41 32.5975V61.3989H221.04Z" fill="white"/>
<path d="M193.169 49.0864L141.236 66.7005C140.76 66.8736 140.262 66.9386 139.764 66.9386C139.267 66.9386 138.747 66.852 138.271 66.7005L86.3377 49.0864V92.6456H86.4026L86.2944 93.2515C86.2944 98.4232 110.249 110 139.743 110C169.237 110 193.126 98.4232 193.126 93.2515L192.996 92.6456H193.169V49.0864Z" fill="white"/>
<path d="M86.3162 40.4741L139.743 58.6075L193.169 40.4741L216.41 32.5975L221.04 31.0178L223.485 30.1956L139.743 2L56 30.1956L86.3162 40.4741Z" fill="white"/>
<path d="M213.25 68.4965V86.2188C213.25 89.2483 215.695 91.6935 218.725 91.6935C221.754 91.6935 224.199 89.2483 224.199 86.2188V68.4965C224.199 67.0034 223.593 65.6402 222.62 64.6448H214.83C213.856 65.6402 213.25 67.0034 213.25 68.4965Z" fill="white"/>
<path d="M214.116 61.3989V64.6664H214.83H222.62H223.312V61.3989H221.04H216.409H214.116Z" fill="white"/>
</g>
<defs>
<filter id="filter0_d_61_31" x="12.1963" y="0" width="230.707" height="124.199" filterUnits="userSpaceOnUse" color-interpolation-filters="sRGB">
<feFlood flood-opacity="0" result="BackgroundImageFix"/>
<feColorMatrix in="SourceAlpha" values="0 0 0 0 0 0 0 0 0 0 0 0 0 0 0 0 0 0 127 0" result="hardAlpha"/>
<feOffset dy="4"/>
<feGaussianBlur stdDeviation="2"/>
<feBlend mode="normal" in="SourceGraphic" in2="effect1_dropShadow_61_31" result="shape"/>
</filter>
</defs>
</svg>
