<svg width="285" height="196" viewBox="0 0 285 196" fill="none" xmlns="http://www.w3.org/2000/svg">
<g filter="url(#filter0_d_61_31)">
<path d="M221.04 61.3989V31.0178L216.41 32.5975V61.3989H221.04Z" fill="white"/>
<path d="M193.169 49.0864L141.236 66.7005C140.76 66.8736 140.262 66.9386 139.764 66.9386C139.267 66.9386 138.747 66.852 138.271 66.7005L86.3377 49.0864V92.6456H86.4026L86.2944 93.2515C86.2944 98.4232 110.249 110 139.743 110C169.237 110 193.126 98.4232 193.126 93.2515L192.996 92.6456H193.169V49.0864Z" fill="white"/>
<path d="M86.3162 40.4741L139.743 58.6075L193.169 40.4741L216.41 32.5975L221.04 31.0178L223.485 30.1956L139.743 2L56 30.1956L86.3162 40.4741Z" fill="white"/>
<path d="M213.25 68.4965V86.2188C213.25 89.2483 215.695 91.6935 218.725 91.6935C221.754 91.6935 224.199 89.2483 224.199 86.2188V68.4965C224.199 67.0034 223.593 65.6402 222.62 64.6448H214.83C213.856 65.6402 213.25 67.0034 213.25 68.4965Z" fill="white"/>
<path d="M214.116 61.3989V64.6664H214.83H222.62H223.312V61.3989H221.04H216.409H214.116Z" fill="white"/>
</g>
<path d="M62.5062 155.532V161.596H41.5183V155.532H62.5062Z" fill="white"/>
<path d="M67.9889 135.904H74.3709V181.388H67.9889V135.904ZM71.2786 175.379H97.2229V181.443H71.2786V175.379Z" fill="white"/>
<path d="M136.03 179.14C134.056 177.485 133.058 174.974 133.058 171.596C133.058 168.387 133.965 165.982 135.778 164.381C137.598 162.769 140.328 161.968 144.002 161.968H148.083V167.089H144.035C142.696 166.985 141.365 167.375 140.295 168.186C139.858 168.629 139.522 169.161 139.31 169.746C139.098 170.33 139.015 170.954 139.067 171.574C139.013 172.271 139.135 172.97 139.42 173.608C139.705 174.245 140.146 174.802 140.701 175.226C142.194 176.151 143.938 176.587 145.69 176.476C147.552 176.574 149.415 176.305 151.173 175.686C151.697 175.515 152.151 175.179 152.469 174.728C152.787 174.278 152.952 173.737 152.938 173.186L153.596 177.748C153.061 178.615 152.351 179.361 151.513 179.941C150.643 180.524 149.678 180.951 148.662 181.202C147.464 181.501 146.234 181.644 144.999 181.63C140.997 181.63 138.014 180.796 136.03 179.14ZM152.938 160.598C153.05 158.786 152.438 157.004 151.239 155.641C150.598 155.03 149.837 154.558 149.005 154.254C148.173 153.95 147.287 153.822 146.403 153.876C145.115 153.876 143.835 154.076 142.609 154.468C141.431 154.84 140.32 155.399 139.319 156.124L134.67 152.933C135.981 151.4 137.649 150.213 139.528 149.479C141.659 148.636 143.936 148.218 146.228 148.251C148.61 148.183 150.975 148.671 153.136 149.676C154.995 150.555 156.53 151.998 157.522 153.799C158.564 155.808 159.074 158.051 159.002 160.313V181.147H152.938V160.598Z" fill="white"/>
<path d="M163.389 148.722H169.77V181.158H163.389V148.722ZM179.113 154.841C178.166 154.473 177.157 154.294 176.141 154.315C175.286 154.263 174.428 154.385 173.62 154.671C172.812 154.957 172.07 155.403 171.437 155.981C170.86 156.602 170.415 157.332 170.128 158.13C169.842 158.927 169.72 159.774 169.77 160.62L169.113 154.38C170 152.571 171.332 151.017 172.983 149.863C174.528 148.801 176.361 148.238 178.236 148.251C179.6 148.23 180.958 148.445 182.249 148.887C183.418 149.296 184.489 149.941 185.396 150.784L181.24 156.409C180.679 155.725 179.96 155.187 179.146 154.841H179.113Z" fill="white"/>
<path d="M187.37 148.722H193.752V181.158H187.37V148.722ZM207.108 161.497C207.229 159.562 206.587 157.657 205.321 156.19C203.964 154.998 202.231 154.323 200.426 154.283C198.621 154.243 196.86 154.84 195.452 155.97C194.863 156.586 194.408 157.317 194.115 158.117C193.823 158.917 193.699 159.769 193.752 160.62L193.094 154.38C193.977 152.549 195.328 150.984 197.009 149.841C198.598 148.789 200.465 148.235 202.371 148.251C203.906 148.163 205.441 148.428 206.857 149.027C208.274 149.626 209.534 150.542 210.54 151.705C212.47 154.008 213.435 157.261 213.435 161.464V181.202H207.064L207.108 161.497Z" fill="white"/>
<path d="M217.854 135.904H224.236V142.275H217.854V135.904ZM217.854 148.909H224.236V181.345H217.854V148.909Z" fill="white"/>
<path d="M228.655 148.722H235.026V181.158H228.655V148.722ZM248.393 161.497C248.514 159.562 247.872 157.657 246.606 156.19C245.249 154.998 243.516 154.323 241.711 154.283C239.906 154.243 238.145 154.84 236.737 155.97C236.146 156.585 235.689 157.316 235.394 158.116C235.1 158.916 234.975 159.769 235.026 160.62L234.379 154.38C235.262 152.549 236.613 150.984 238.294 149.841C239.882 148.788 241.75 148.234 243.656 148.251C245.191 148.163 246.726 148.428 248.142 149.027C249.559 149.626 250.819 150.542 251.825 151.705C253.755 154.008 254.72 157.261 254.72 161.464V181.202H248.349L248.393 161.497Z" fill="white"/>
<path d="M264.271 180.719C262.558 179.647 261.22 178.068 260.444 176.202C259.514 173.943 259.066 171.516 259.128 169.074V161.925C259.064 159.475 259.501 157.039 260.411 154.764C261.165 152.911 262.47 151.333 264.15 150.246C265.924 149.178 267.968 148.641 270.039 148.7C271.901 148.686 273.728 149.207 275.302 150.203C276.94 151.243 278.272 152.7 279.162 154.424L278.504 161.004C278.54 159.784 278.284 158.574 277.758 157.473C277.267 156.536 276.502 155.771 275.565 155.28C274.494 154.744 273.308 154.481 272.111 154.512C271.201 154.459 270.29 154.608 269.444 154.949C268.598 155.291 267.839 155.815 267.221 156.486C265.994 158.041 265.378 159.991 265.488 161.968V169.03C265.357 171.011 265.975 172.968 267.221 174.513C267.846 175.182 268.612 175.705 269.463 176.044C270.314 176.384 271.23 176.531 272.144 176.476C273.345 176.513 274.536 176.237 275.598 175.675C276.547 175.154 277.312 174.354 277.791 173.384C278.318 172.26 278.574 171.028 278.537 169.787L278.976 176.629C278.323 178.247 277.224 179.647 275.807 180.665C274.226 181.782 272.324 182.352 270.39 182.288C268.243 182.351 266.122 181.808 264.271 180.719ZM264.402 193.538C262.571 192.715 261.014 191.383 259.918 189.7L264.271 185.796C265.051 186.896 266.071 187.803 267.254 188.45C268.735 189.22 270.413 189.527 272.071 189.331C273.729 189.136 275.29 188.447 276.552 187.354C277.253 186.588 277.792 185.687 278.135 184.707C278.478 183.727 278.618 182.688 278.548 181.652V149.27H284.93V180.741C285.006 183.395 284.441 186.028 283.285 188.417C282.24 190.482 280.576 192.169 278.526 193.242C276.187 194.399 273.601 194.968 270.993 194.898C268.726 194.939 266.478 194.475 264.413 193.538H264.402Z" fill="white"/>
<path d="M21.8133 180.445C18.9061 180.489 16.0376 179.775 13.4905 178.373C11.015 176.967 8.96468 174.918 7.55586 172.444C6.14703 169.97 5.43186 167.162 5.48574 164.315C5.44035 161.448 6.15948 158.621 7.56918 156.124C8.97687 153.706 10.9999 151.703 13.4325 150.32C15.8651 148.937 18.6205 148.223 21.4186 148.251C24.0645 148.18 26.6789 148.84 28.9738 150.159C31.1732 151.458 32.9541 153.361 34.1056 155.641C35.3889 158.041 36.0381 160.728 35.9917 163.449C35.9917 163.887 35.9917 164.359 35.9259 164.885C35.8722 165.452 35.788 166.016 35.6737 166.574H16.0236V161.65H32.5485L30.3554 163.537C30.419 161.716 30.0428 159.907 29.2589 158.262C28.5791 156.852 27.495 155.676 26.1447 154.885C24.6652 154.026 22.9752 153.596 21.2651 153.646C19.4226 153.608 17.603 154.058 15.9907 154.951C14.4938 155.8 13.275 157.064 12.4817 158.591C11.6297 160.291 11.2044 162.173 11.2426 164.074C11.1932 166.096 11.6533 168.099 12.5804 169.897C13.4355 171.467 14.7214 172.76 16.2867 173.625C17.9777 174.507 19.8625 174.952 21.7695 174.919C23.3974 174.939 25.0125 174.629 26.5175 174.009C27.9776 173.418 29.2722 172.481 30.2896 171.278L34.0618 175.116C32.5794 176.86 30.6988 178.222 28.579 179.086C26.4392 179.993 24.1374 180.455 21.8133 180.445Z" fill="white"/>
<path d="M114.932 181.63C112.025 181.674 109.156 180.959 106.609 179.557C104.134 178.151 102.083 176.103 100.675 173.629C99.2658 171.154 98.5507 168.346 98.6045 165.499C98.5558 162.633 99.2711 159.806 100.677 157.308C102.085 154.89 104.108 152.887 106.54 151.505C108.973 150.122 111.728 149.408 114.526 149.435C117.169 149.365 119.779 150.025 122.071 151.343C124.27 152.643 126.051 154.545 127.203 156.826C128.486 159.225 129.135 161.913 129.089 164.633C129.089 165.072 129.089 165.543 129.023 166.07C128.969 166.637 128.885 167.2 128.771 167.758H109.12V162.835H125.645L123.452 164.721C123.516 162.9 123.14 161.091 122.356 159.446C121.697 158.047 120.64 156.873 119.318 156.069C117.839 155.21 116.149 154.781 114.439 154.83C112.596 154.794 110.777 155.244 109.164 156.135C107.667 156.984 106.449 158.248 105.655 159.775C104.803 161.475 104.378 163.357 104.416 165.258C104.343 167.274 104.777 169.276 105.677 171.081C106.524 172.671 107.811 173.985 109.384 174.864C111.075 175.746 112.959 176.191 114.866 176.158C116.494 176.178 118.109 175.868 119.614 175.248C121.075 174.657 122.369 173.72 123.387 172.517L127.159 176.355C125.676 178.099 123.796 179.461 121.676 180.325C119.539 181.21 117.245 181.654 114.932 181.63Z" fill="white"/>
<path d="M21.8133 180.445C18.9061 180.489 16.0376 179.775 13.4905 178.373C11.015 176.967 8.96468 174.918 7.55586 172.444C6.14703 169.97 5.43186 167.162 5.48574 164.315C5.44035 161.448 6.15948 158.621 7.56918 156.124C8.97687 153.706 10.9999 151.703 13.4325 150.32C15.8651 148.937 18.6205 148.223 21.4186 148.251C24.0645 148.18 26.6789 148.84 28.9738 150.159C31.1732 151.458 32.9541 153.361 34.1056 155.641C35.3889 158.041 36.0381 160.728 35.9917 163.449C35.9917 163.887 35.9917 164.359 35.9259 164.885C35.8722 165.452 35.788 166.016 35.6737 166.574H16.0236V161.65H32.5485L30.3554 163.537C30.419 161.716 30.0428 159.907 29.2589 158.262C28.5791 156.852 27.495 155.676 26.1447 154.885C24.6652 154.026 22.9752 153.596 21.2651 153.646C19.4226 153.608 17.603 154.058 15.9907 154.951C14.4938 155.8 13.275 157.064 12.4817 158.591C11.6297 160.291 11.2044 162.173 11.2426 164.074C11.1932 166.096 11.6533 168.099 12.5804 169.897C13.4355 171.467 14.7214 172.76 16.2867 173.625C17.9777 174.507 19.8625 174.952 21.7695 174.919C23.3974 174.939 25.0125 174.629 26.5175 174.009C27.9776 173.418 29.2722 172.481 30.2896 171.278L34.0618 175.116C32.5794 176.86 30.6988 178.222 28.579 179.086C26.4392 179.993 24.1374 180.455 21.8133 180.445Z" fill="white"/>
<defs>
<filter id="filter0_d_61_31" x="50.1" y="0.0999999" width="179.999" height="119.8" filterUnits="userSpaceOnUse" color-interpolation-filters="sRGB">
<feFlood flood-opacity="0" result="BackgroundImageFix"/>
<feColorMatrix in="SourceAlpha" type="matrix" values="0 0 0 0 0 0 0 0 0 0 0 0 0 0 0 0 0 0 127 0" result="hardAlpha"/>
<feOffset dy="4"/>
<feGaussianBlur stdDeviation="2.95"/>
<feComposite in2="hardAlpha" operator="out"/>
<feColorMatrix type="matrix" values="0 0 0 0 0.0117647 0 0 0 0 0.270588 0 0 0 0 0.305882 0 0 0 0.2 0"/>
<feBlend mode="normal" in2="BackgroundImageFix" result="effect1_dropShadow_61_31"/>
<feBlend mode="normal" in="SourceGraphic" in2="effect1_dropShadow_61_31" result="shape"/>
</filter>
</defs>
</svg>
