<svg width="2048" height="2048" viewBox="0 0 2048 2048" fill="none" xmlns="http://www.w3.org/2000/svg">
<path d="M896 1280C896 1334.67 885 1386.67 863 1436C841 1485.33 809.333 1528.67 768 1566V2024L512 1896L256 2024V1566C215.333 1529.33 184 1486.33 162 1437C140 1387.67 128.667 1335.33 128 1280C128 1227.33 138 1177.67 158 1131C178 1084.33 205.333 1043.67 240 1009C274.667 974.333 315.333 946.667 362 926C408.667 905.333 458.667 895.333 512 896C564.667 896 614.333 906 661 926C707.667 946 748.333 973.667 783 1009C817.667 1044.33 845 1085 865 1131C885 1177 895.333 1226.67 896 1280ZM512 1536C547.333 1536 580.333 1529.33 611 1516C641.667 1502.67 669 1484.33 693 1461C717 1437.67 735.333 1410.67 748 1380C760.667 1349.33 767.333 1316 768 1280C768 1244.67 761.333 1211.67 748 1181C734.667 1150.33 716.333 1123 693 1099C669.667 1075 642.667 1056.67 612 1044C581.333 1031.33 548 1024.67 512 1024C476.667 1024 443.667 1030.67 413 1044C382.333 1057.33 355 1075.67 331 1099C307 1122.33 288.667 1149.33 276 1180C263.333 1210.67 256.667 1244 256 1280C256 1315.33 262.667 1348.33 276 1379C289.333 1409.67 307.667 1437 331 1461C354.333 1485 381.333 1503.33 412 1516C442.667 1528.67 476 1535.33 512 1536ZM640 1642C599.333 1656.67 558.333 1664 517 1664C470.333 1664 426 1656.67 384 1642V1816L512 1752L640 1816V1642ZM1920 549V2048H896V1920H1792V640H1280V128H384V752C362 757.333 340.333 764 319 772C297.667 780 276.667 789.333 256 800V0H1371L1920 549ZM1701 512L1408 219V512H1701Z" fill="#9B98FF"/>
</svg>
